<mxfile host="app.diagrams.net" modified="2023-12-04T02:49:16.003Z" agent="Mozilla/5.0 (Windows NT 10.0; Win64; x64) AppleWebKit/537.36 (KHTML, like Gecko) Chrome/119.0.0.0 Safari/537.36" etag="GvQ85x5EYOU02n2-t5oi" version="22.1.5" type="device">
  <diagram id="C5RBs43oDa-KdzZeNtuy" name="Page-1">
    <mxGraphModel dx="1548" dy="743" grid="1" gridSize="10" guides="1" tooltips="1" connect="1" arrows="1" fold="1" page="1" pageScale="1" pageWidth="827" pageHeight="1169" math="0" shadow="0">
      <root>
        <mxCell id="WIyWlLk6GJQsqaUBKTNV-0" />
        <mxCell id="WIyWlLk6GJQsqaUBKTNV-1" parent="WIyWlLk6GJQsqaUBKTNV-0" />
        <mxCell id="CC2i3FvBYXT04ihyoue2-38" value="" style="edgeStyle=orthogonalEdgeStyle;rounded=0;orthogonalLoop=1;jettySize=auto;html=1;" edge="1" parent="WIyWlLk6GJQsqaUBKTNV-1" source="CC2i3FvBYXT04ihyoue2-0" target="CC2i3FvBYXT04ihyoue2-37">
          <mxGeometry relative="1" as="geometry" />
        </mxCell>
        <mxCell id="CC2i3FvBYXT04ihyoue2-0" value="INICIO" style="strokeWidth=2;html=1;shape=mxgraph.flowchart.start_1;whiteSpace=wrap;" vertex="1" parent="WIyWlLk6GJQsqaUBKTNV-1">
          <mxGeometry x="364" y="80" width="100" height="60" as="geometry" />
        </mxCell>
        <mxCell id="CC2i3FvBYXT04ihyoue2-2" value="&lt;p style=&quot;line-height:1.38;text-align: justify;margin-top:0pt;margin-bottom:0pt;&quot; dir=&quot;ltr&quot;&gt;&lt;/p&gt;&lt;div&gt;&lt;/div&gt;&lt;span style=&quot;font-size: 11pt; font-family: &amp;quot;Work Sans&amp;quot;, sans-serif; color: rgb(67, 67, 67); background-color: transparent; font-variant-numeric: normal; font-variant-east-asian: normal; font-variant-alternates: normal; font-variant-position: normal; vertical-align: baseline;&quot;&gt;1- Escribir un programa que solicite la edad y si es mayor de 18 años mostrar un mensaje que ya puede conducir,&lt;br&gt;&amp;nbsp;si la edad ingresada no es un número válido indicarlo en un mensaje.&lt;/span&gt;&lt;p&gt;&lt;/p&gt;&lt;span id=&quot;docs-internal-guid-576e4358-7fff-948d-6322-2043c06f7c9e&quot;&gt;&lt;/span&gt;" style="text;html=1;align=center;verticalAlign=middle;resizable=0;points=[];autosize=1;strokeColor=none;fillColor=none;" vertex="1" parent="WIyWlLk6GJQsqaUBKTNV-1">
          <mxGeometry x="34" y="10" width="760" height="60" as="geometry" />
        </mxCell>
        <mxCell id="CC2i3FvBYXT04ihyoue2-16" style="edgeStyle=orthogonalEdgeStyle;rounded=0;orthogonalLoop=1;jettySize=auto;html=1;" edge="1" parent="WIyWlLk6GJQsqaUBKTNV-1" source="CC2i3FvBYXT04ihyoue2-4" target="CC2i3FvBYXT04ihyoue2-15">
          <mxGeometry relative="1" as="geometry" />
        </mxCell>
        <mxCell id="CC2i3FvBYXT04ihyoue2-4" value="edad" style="shape=parallelogram;html=1;strokeWidth=2;perimeter=parallelogramPerimeter;whiteSpace=wrap;rounded=1;arcSize=12;size=0.23;" vertex="1" parent="WIyWlLk6GJQsqaUBKTNV-1">
          <mxGeometry x="364" y="220" width="100" height="30" as="geometry" />
        </mxCell>
        <mxCell id="CC2i3FvBYXT04ihyoue2-28" style="edgeStyle=orthogonalEdgeStyle;rounded=0;orthogonalLoop=1;jettySize=auto;html=1;entryX=0.5;entryY=0;entryDx=0;entryDy=0;entryPerimeter=0;" edge="1" parent="WIyWlLk6GJQsqaUBKTNV-1" source="CC2i3FvBYXT04ihyoue2-8">
          <mxGeometry relative="1" as="geometry">
            <mxPoint x="414" y="630" as="targetPoint" />
            <Array as="points">
              <mxPoint x="690" y="560" />
              <mxPoint x="580" y="560" />
              <mxPoint x="580" y="600" />
              <mxPoint x="414" y="600" />
            </Array>
          </mxGeometry>
        </mxCell>
        <mxCell id="CC2i3FvBYXT04ihyoue2-8" value="&quot;Ya puede conducir&quot;" style="strokeWidth=2;html=1;shape=mxgraph.flowchart.document2;whiteSpace=wrap;size=0.25;" vertex="1" parent="WIyWlLk6GJQsqaUBKTNV-1">
          <mxGeometry x="630" y="480" width="120" height="60" as="geometry" />
        </mxCell>
        <mxCell id="CC2i3FvBYXT04ihyoue2-29" style="edgeStyle=orthogonalEdgeStyle;rounded=0;orthogonalLoop=1;jettySize=auto;html=1;" edge="1" parent="WIyWlLk6GJQsqaUBKTNV-1" source="CC2i3FvBYXT04ihyoue2-9">
          <mxGeometry relative="1" as="geometry">
            <mxPoint x="414" y="630" as="targetPoint" />
            <Array as="points">
              <mxPoint x="265" y="600" />
              <mxPoint x="414" y="600" />
            </Array>
          </mxGeometry>
        </mxCell>
        <mxCell id="CC2i3FvBYXT04ihyoue2-9" value="&quot;La edad ingresada no es un número válido&quot;" style="strokeWidth=2;html=1;shape=mxgraph.flowchart.document2;whiteSpace=wrap;size=0.25;" vertex="1" parent="WIyWlLk6GJQsqaUBKTNV-1">
          <mxGeometry x="200" y="395" width="130" height="70" as="geometry" />
        </mxCell>
        <mxCell id="CC2i3FvBYXT04ihyoue2-21" style="edgeStyle=orthogonalEdgeStyle;rounded=0;orthogonalLoop=1;jettySize=auto;html=1;entryX=0.5;entryY=0;entryDx=0;entryDy=0;entryPerimeter=0;" edge="1" parent="WIyWlLk6GJQsqaUBKTNV-1" source="CC2i3FvBYXT04ihyoue2-14" target="CC2i3FvBYXT04ihyoue2-8">
          <mxGeometry relative="1" as="geometry" />
        </mxCell>
        <mxCell id="CC2i3FvBYXT04ihyoue2-27" style="edgeStyle=orthogonalEdgeStyle;rounded=0;orthogonalLoop=1;jettySize=auto;html=1;endArrow=none;endFill=0;exitX=0;exitY=0.5;exitDx=0;exitDy=0;exitPerimeter=0;" edge="1" parent="WIyWlLk6GJQsqaUBKTNV-1" source="CC2i3FvBYXT04ihyoue2-14">
          <mxGeometry relative="1" as="geometry">
            <mxPoint x="580" y="600" as="targetPoint" />
            <Array as="points">
              <mxPoint x="480" y="440" />
              <mxPoint x="480" y="560" />
              <mxPoint x="580" y="560" />
            </Array>
          </mxGeometry>
        </mxCell>
        <mxCell id="CC2i3FvBYXT04ihyoue2-14" value="edad &amp;gt; 18" style="strokeWidth=2;html=1;shape=mxgraph.flowchart.decision;whiteSpace=wrap;" vertex="1" parent="WIyWlLk6GJQsqaUBKTNV-1">
          <mxGeometry x="520" y="390" width="100" height="100" as="geometry" />
        </mxCell>
        <mxCell id="CC2i3FvBYXT04ihyoue2-19" style="edgeStyle=orthogonalEdgeStyle;rounded=0;orthogonalLoop=1;jettySize=auto;html=1;" edge="1" parent="WIyWlLk6GJQsqaUBKTNV-1" source="CC2i3FvBYXT04ihyoue2-15" target="CC2i3FvBYXT04ihyoue2-9">
          <mxGeometry relative="1" as="geometry" />
        </mxCell>
        <mxCell id="CC2i3FvBYXT04ihyoue2-15" value="edad es un Natural" style="strokeWidth=2;html=1;shape=mxgraph.flowchart.decision;whiteSpace=wrap;" vertex="1" parent="WIyWlLk6GJQsqaUBKTNV-1">
          <mxGeometry x="364" y="270" width="100" height="100" as="geometry" />
        </mxCell>
        <mxCell id="CC2i3FvBYXT04ihyoue2-17" style="edgeStyle=orthogonalEdgeStyle;rounded=0;orthogonalLoop=1;jettySize=auto;html=1;entryX=0.5;entryY=0;entryDx=0;entryDy=0;" edge="1" parent="WIyWlLk6GJQsqaUBKTNV-1" source="CC2i3FvBYXT04ihyoue2-15" target="CC2i3FvBYXT04ihyoue2-33">
          <mxGeometry relative="1" as="geometry" />
        </mxCell>
        <mxCell id="CC2i3FvBYXT04ihyoue2-18" value="SI" style="text;html=1;align=center;verticalAlign=middle;resizable=0;points=[];autosize=1;strokeColor=none;fillColor=none;" vertex="1" parent="WIyWlLk6GJQsqaUBKTNV-1">
          <mxGeometry x="500" y="290" width="30" height="30" as="geometry" />
        </mxCell>
        <mxCell id="CC2i3FvBYXT04ihyoue2-20" value="NO" style="text;html=1;align=center;verticalAlign=middle;resizable=0;points=[];autosize=1;strokeColor=none;fillColor=none;" vertex="1" parent="WIyWlLk6GJQsqaUBKTNV-1">
          <mxGeometry x="290" y="290" width="40" height="30" as="geometry" />
        </mxCell>
        <mxCell id="CC2i3FvBYXT04ihyoue2-31" value="&lt;p style=&quot;border-color: var(--border-color); line-height: 1.38; text-align: justify; margin-top: 0pt; margin-bottom: 0pt; font-size: 13px;&quot; dir=&quot;ltr&quot;&gt;&lt;font style=&quot;font-size: 13px;&quot;&gt;2- Escribir un programa que solicite una nota (número) de 0&amp;nbsp; a 10.&amp;nbsp;&lt;/font&gt;&lt;/p&gt;&lt;p style=&quot;border-color: var(--border-color); line-height: 1.38; text-align: justify; margin-top: 0pt; margin-bottom: 0pt; font-size: 13px;&quot; dir=&quot;ltr&quot;&gt;&lt;span style=&quot;border-color: var(--border-color); font-family: &amp;quot;Work Sans&amp;quot;, sans-serif; color: rgb(67, 67, 67); background-color: transparent; font-variant-numeric: normal; font-variant-east-asian: normal; font-variant-alternates: normal; font-variant-position: normal; vertical-align: baseline;&quot;&gt;&lt;font style=&quot;font-size: 13px;&quot;&gt;Luego mostrar la calificación en un alert según los siguientes rangos de nota:&lt;/font&gt;&lt;/span&gt;&lt;/p&gt;&lt;p style=&quot;border-color: var(--border-color); line-height: 1.38; text-align: justify; margin-top: 0pt; margin-bottom: 0pt; font-size: 13px;&quot; dir=&quot;ltr&quot;&gt;&lt;span style=&quot;border-color: var(--border-color); font-family: &amp;quot;Work Sans&amp;quot;, sans-serif; color: rgb(67, 67, 67); background-color: transparent; font-variant-numeric: normal; font-variant-east-asian: normal; font-variant-alternates: normal; font-variant-position: normal; vertical-align: baseline;&quot;&gt;&lt;font style=&quot;font-size: 13px;&quot;&gt;&lt;br&gt;&lt;/font&gt;&lt;/span&gt;&lt;/p&gt;&lt;p style=&quot;line-height: 1.38; text-align: justify; margin-top: 0pt; margin-bottom: 0pt; font-size: 13px;&quot; dir=&quot;ltr&quot;&gt;&lt;/p&gt;&lt;p style=&quot;line-height: 1.38; text-align: justify; margin-top: 0pt; margin-bottom: 0pt; font-size: 13px;&quot; dir=&quot;ltr&quot;&gt;&lt;/p&gt;&lt;p style=&quot;line-height: 1.38; text-align: justify; margin-top: 0pt; margin-bottom: 0pt; font-size: 13px;&quot; dir=&quot;ltr&quot;&gt;&lt;/p&gt;&lt;p style=&quot;line-height: 1.38; text-align: justify; margin-top: 0pt; margin-bottom: 0pt; font-size: 13px;&quot; dir=&quot;ltr&quot;&gt;&lt;/p&gt;&lt;p style=&quot;line-height: 1.38; text-align: justify; margin-top: 0pt; margin-bottom: 0pt; font-size: 13px;&quot; dir=&quot;ltr&quot;&gt;&lt;/p&gt;&lt;p style=&quot;line-height: 1.38; text-align: justify; margin-top: 0pt; margin-bottom: 0pt; font-size: 13px;&quot; dir=&quot;ltr&quot;&gt;&lt;/p&gt;&lt;p style=&quot;line-height: 1.38; text-align: justify; margin-top: 0pt; margin-bottom: 0pt; font-size: 13px;&quot; dir=&quot;ltr&quot;&gt;&lt;span style=&quot;background-color: transparent; color: rgb(67, 67, 67); font-family: &amp;quot;Work Sans&amp;quot;, sans-serif;&quot;&gt;&lt;font style=&quot;font-size: 13px;&quot;&gt;10: Sobresaliente&lt;/font&gt;&lt;/span&gt;&lt;/p&gt;&lt;p style=&quot;line-height: 1.38; text-align: justify; margin-top: 0pt; margin-bottom: 0pt; font-size: 13px;&quot; dir=&quot;ltr&quot;&gt;&lt;span style=&quot;background-color: transparent; color: rgb(67, 67, 67); font-family: &amp;quot;Work Sans&amp;quot;, sans-serif;&quot;&gt;&lt;font style=&quot;font-size: 13px;&quot;&gt;8-9: Notable&lt;/font&gt;&lt;/span&gt;&lt;/p&gt;&lt;p style=&quot;line-height: 1.38; text-align: justify; margin-top: 0pt; margin-bottom: 0pt; font-size: 13px;&quot; dir=&quot;ltr&quot;&gt;&lt;span style=&quot;background-color: transparent; color: rgb(67, 67, 67); font-family: &amp;quot;Work Sans&amp;quot;, sans-serif;&quot;&gt;&lt;font style=&quot;font-size: 13px;&quot;&gt;7: Bien&lt;/font&gt;&lt;/span&gt;&lt;/p&gt;&lt;p style=&quot;line-height: 1.38; text-align: justify; margin-top: 0pt; margin-bottom: 0pt; font-size: 13px;&quot; dir=&quot;ltr&quot;&gt;&lt;span style=&quot;background-color: transparent; color: rgb(67, 67, 67); font-family: &amp;quot;Work Sans&amp;quot;, sans-serif;&quot;&gt;&lt;font style=&quot;font-size: 13px;&quot;&gt;5-6: Suficiente&lt;/font&gt;&lt;/span&gt;&lt;/p&gt;&lt;p style=&quot;line-height: 1.38; text-align: justify; margin-top: 0pt; margin-bottom: 0pt; font-size: 13px;&quot; dir=&quot;ltr&quot;&gt;&lt;span style=&quot;background-color: transparent; color: rgb(67, 67, 67); font-family: &amp;quot;Work Sans&amp;quot;, sans-serif;&quot;&gt;&lt;font style=&quot;font-size: 13px;&quot;&gt;3-4: Insuficiente&lt;/font&gt;&lt;/span&gt;&lt;/p&gt;&lt;p style=&quot;line-height: 1.38; text-align: justify; margin-top: 0pt; margin-bottom: 0pt; font-size: 13px;&quot; dir=&quot;ltr&quot;&gt;&lt;span style=&quot;background-color: transparent; color: rgb(67, 67, 67); font-family: &amp;quot;Work Sans&amp;quot;, sans-serif;&quot;&gt;&lt;font style=&quot;font-size: 13px;&quot;&gt;0-2: Muy deficiente&lt;/font&gt;&lt;/span&gt;&lt;/p&gt;&lt;p style=&quot;line-height: 1.38; text-align: justify; margin-top: 0pt; margin-bottom: 0pt; font-size: 13px;&quot; dir=&quot;ltr&quot;&gt;&lt;span style=&quot;background-color: transparent; color: rgb(67, 67, 67); font-family: &amp;quot;Work Sans&amp;quot;, sans-serif;&quot;&gt;&lt;font style=&quot;font-size: 13px;&quot;&gt;&lt;br&gt;&lt;/font&gt;&lt;/span&gt;&lt;/p&gt;&lt;p style=&quot;font-size: 13px;&quot;&gt;&lt;/p&gt;&lt;font style=&quot;font-size: 13px;&quot;&gt;&lt;span id=&quot;docs-internal-guid-f3b4f429-7fff-c39c-cde0-e3ae38057f14&quot;&gt;&lt;/span&gt;&lt;/font&gt;&lt;p style=&quot;border-color: var(--border-color); line-height: 1.38; text-align: justify; margin-top: 0pt; margin-bottom: 0pt; font-size: 13px;&quot; dir=&quot;ltr&quot;&gt;&lt;font style=&quot;font-size: 13px;&quot;&gt;Si ingreso un número que no esté dentro del rango de 0 a 10 mostrar un mensaje de “número erróneo”.&amp;nbsp;&lt;/font&gt;&lt;/p&gt;&lt;p style=&quot;border-color: var(--border-color); line-height: 1.38; text-align: justify; margin-top: 0pt; margin-bottom: 0pt; font-size: 13px;&quot; dir=&quot;ltr&quot;&gt;&lt;span style=&quot;border-color: var(--border-color); font-family: &amp;quot;Work Sans&amp;quot;, sans-serif; color: rgb(67, 67, 67); background-color: transparent; font-variant-numeric: normal; font-variant-east-asian: normal; font-variant-alternates: normal; font-variant-position: normal; vertical-align: baseline;&quot;&gt;&lt;font style=&quot;font-size: 13px;&quot;&gt;Si el número ingresado no es válido mostrar el mensaje “Introduce un número válido”.&lt;/font&gt;&lt;/span&gt;&lt;/p&gt;" style="text;html=1;align=left;verticalAlign=middle;resizable=0;points=[];autosize=1;strokeColor=none;fillColor=none;" vertex="1" parent="WIyWlLk6GJQsqaUBKTNV-1">
          <mxGeometry x="104" y="850" width="620" height="240" as="geometry" />
        </mxCell>
        <mxCell id="CC2i3FvBYXT04ihyoue2-36" style="edgeStyle=orthogonalEdgeStyle;rounded=0;orthogonalLoop=1;jettySize=auto;html=1;" edge="1" parent="WIyWlLk6GJQsqaUBKTNV-1" source="CC2i3FvBYXT04ihyoue2-33" target="CC2i3FvBYXT04ihyoue2-14">
          <mxGeometry relative="1" as="geometry" />
        </mxCell>
        <mxCell id="CC2i3FvBYXT04ihyoue2-33" value="bandera &amp;lt;-- 1" style="rounded=1;whiteSpace=wrap;html=1;absoluteArcSize=1;arcSize=14;strokeWidth=2;" vertex="1" parent="WIyWlLk6GJQsqaUBKTNV-1">
          <mxGeometry x="520" y="345" width="100" height="25" as="geometry" />
        </mxCell>
        <mxCell id="CC2i3FvBYXT04ihyoue2-41" style="edgeStyle=orthogonalEdgeStyle;rounded=0;orthogonalLoop=1;jettySize=auto;html=1;entryX=0.5;entryY=0;entryDx=0;entryDy=0;" edge="1" parent="WIyWlLk6GJQsqaUBKTNV-1" source="CC2i3FvBYXT04ihyoue2-37" target="CC2i3FvBYXT04ihyoue2-4">
          <mxGeometry relative="1" as="geometry" />
        </mxCell>
        <mxCell id="CC2i3FvBYXT04ihyoue2-37" value="bandera &amp;lt;-- 0" style="rounded=1;whiteSpace=wrap;html=1;absoluteArcSize=1;arcSize=14;strokeWidth=2;" vertex="1" parent="WIyWlLk6GJQsqaUBKTNV-1">
          <mxGeometry x="364" y="160" width="100" height="25" as="geometry" />
        </mxCell>
        <mxCell id="CC2i3FvBYXT04ihyoue2-42" value="FIN" style="strokeWidth=2;html=1;shape=mxgraph.flowchart.start_1;whiteSpace=wrap;" vertex="1" parent="WIyWlLk6GJQsqaUBKTNV-1">
          <mxGeometry x="364" y="750" width="100" height="60" as="geometry" />
        </mxCell>
        <mxCell id="CC2i3FvBYXT04ihyoue2-45" style="edgeStyle=orthogonalEdgeStyle;rounded=0;orthogonalLoop=1;jettySize=auto;html=1;" edge="1" parent="WIyWlLk6GJQsqaUBKTNV-1" source="CC2i3FvBYXT04ihyoue2-43">
          <mxGeometry relative="1" as="geometry">
            <mxPoint x="414" y="200" as="targetPoint" />
            <Array as="points">
              <mxPoint x="180" y="680" />
              <mxPoint x="180" y="200" />
            </Array>
          </mxGeometry>
        </mxCell>
        <mxCell id="CC2i3FvBYXT04ihyoue2-43" value="bandera = 0" style="strokeWidth=2;html=1;shape=mxgraph.flowchart.decision;whiteSpace=wrap;" vertex="1" parent="WIyWlLk6GJQsqaUBKTNV-1">
          <mxGeometry x="364" y="630" width="100" height="100" as="geometry" />
        </mxCell>
        <mxCell id="CC2i3FvBYXT04ihyoue2-44" style="edgeStyle=orthogonalEdgeStyle;rounded=0;orthogonalLoop=1;jettySize=auto;html=1;entryX=0.5;entryY=0;entryDx=0;entryDy=0;entryPerimeter=0;" edge="1" parent="WIyWlLk6GJQsqaUBKTNV-1" source="CC2i3FvBYXT04ihyoue2-43" target="CC2i3FvBYXT04ihyoue2-42">
          <mxGeometry relative="1" as="geometry" />
        </mxCell>
        <mxCell id="CC2i3FvBYXT04ihyoue2-46" value="SI" style="text;html=1;align=center;verticalAlign=middle;resizable=0;points=[];autosize=1;strokeColor=none;fillColor=none;" vertex="1" parent="WIyWlLk6GJQsqaUBKTNV-1">
          <mxGeometry x="640" y="415" width="30" height="30" as="geometry" />
        </mxCell>
        <mxCell id="CC2i3FvBYXT04ihyoue2-47" value="SI" style="text;html=1;align=center;verticalAlign=middle;resizable=0;points=[];autosize=1;strokeColor=none;fillColor=none;" vertex="1" parent="WIyWlLk6GJQsqaUBKTNV-1">
          <mxGeometry x="334" y="657" width="30" height="30" as="geometry" />
        </mxCell>
        <mxCell id="CC2i3FvBYXT04ihyoue2-48" value="NO" style="text;html=1;align=center;verticalAlign=middle;resizable=0;points=[];autosize=1;strokeColor=none;fillColor=none;" vertex="1" parent="WIyWlLk6GJQsqaUBKTNV-1">
          <mxGeometry x="480" y="415" width="40" height="30" as="geometry" />
        </mxCell>
        <mxCell id="CC2i3FvBYXT04ihyoue2-53" style="edgeStyle=orthogonalEdgeStyle;rounded=0;orthogonalLoop=1;jettySize=auto;html=1;" edge="1" parent="WIyWlLk6GJQsqaUBKTNV-1" source="CC2i3FvBYXT04ihyoue2-49" target="CC2i3FvBYXT04ihyoue2-52">
          <mxGeometry relative="1" as="geometry" />
        </mxCell>
        <mxCell id="CC2i3FvBYXT04ihyoue2-49" value="INICIO" style="strokeWidth=2;html=1;shape=mxgraph.flowchart.start_1;whiteSpace=wrap;" vertex="1" parent="WIyWlLk6GJQsqaUBKTNV-1">
          <mxGeometry x="363" y="1100" width="100" height="60" as="geometry" />
        </mxCell>
        <mxCell id="CC2i3FvBYXT04ihyoue2-50" value="FIN" style="strokeWidth=2;html=1;shape=mxgraph.flowchart.start_1;whiteSpace=wrap;" vertex="1" parent="WIyWlLk6GJQsqaUBKTNV-1">
          <mxGeometry x="360" y="2000" width="100" height="60" as="geometry" />
        </mxCell>
        <mxCell id="CC2i3FvBYXT04ihyoue2-55" style="edgeStyle=orthogonalEdgeStyle;rounded=0;orthogonalLoop=1;jettySize=auto;html=1;" edge="1" parent="WIyWlLk6GJQsqaUBKTNV-1" source="CC2i3FvBYXT04ihyoue2-52" target="CC2i3FvBYXT04ihyoue2-54">
          <mxGeometry relative="1" as="geometry" />
        </mxCell>
        <mxCell id="CC2i3FvBYXT04ihyoue2-52" value="bandera &amp;lt;-- 0" style="rounded=1;whiteSpace=wrap;html=1;absoluteArcSize=1;arcSize=14;strokeWidth=2;" vertex="1" parent="WIyWlLk6GJQsqaUBKTNV-1">
          <mxGeometry x="363" y="1190" width="100" height="30" as="geometry" />
        </mxCell>
        <mxCell id="CC2i3FvBYXT04ihyoue2-57" value="" style="edgeStyle=orthogonalEdgeStyle;rounded=0;orthogonalLoop=1;jettySize=auto;html=1;" edge="1" parent="WIyWlLk6GJQsqaUBKTNV-1" source="CC2i3FvBYXT04ihyoue2-54" target="CC2i3FvBYXT04ihyoue2-56">
          <mxGeometry relative="1" as="geometry" />
        </mxCell>
        <mxCell id="CC2i3FvBYXT04ihyoue2-54" value="nota" style="shape=parallelogram;html=1;strokeWidth=2;perimeter=parallelogramPerimeter;whiteSpace=wrap;rounded=1;arcSize=12;size=0.23;" vertex="1" parent="WIyWlLk6GJQsqaUBKTNV-1">
          <mxGeometry x="363" y="1250" width="100" height="30" as="geometry" />
        </mxCell>
        <mxCell id="CC2i3FvBYXT04ihyoue2-60" style="edgeStyle=orthogonalEdgeStyle;rounded=0;orthogonalLoop=1;jettySize=auto;html=1;" edge="1" parent="WIyWlLk6GJQsqaUBKTNV-1" source="CC2i3FvBYXT04ihyoue2-56" target="CC2i3FvBYXT04ihyoue2-59">
          <mxGeometry relative="1" as="geometry" />
        </mxCell>
        <mxCell id="CC2i3FvBYXT04ihyoue2-61" style="edgeStyle=orthogonalEdgeStyle;rounded=0;orthogonalLoop=1;jettySize=auto;html=1;" edge="1" parent="WIyWlLk6GJQsqaUBKTNV-1" source="CC2i3FvBYXT04ihyoue2-56" target="CC2i3FvBYXT04ihyoue2-58">
          <mxGeometry relative="1" as="geometry" />
        </mxCell>
        <mxCell id="CC2i3FvBYXT04ihyoue2-56" value="nota es un número" style="strokeWidth=2;html=1;shape=mxgraph.flowchart.decision;whiteSpace=wrap;" vertex="1" parent="WIyWlLk6GJQsqaUBKTNV-1">
          <mxGeometry x="363" y="1300" width="100" height="70" as="geometry" />
        </mxCell>
        <mxCell id="CC2i3FvBYXT04ihyoue2-73" style="edgeStyle=orthogonalEdgeStyle;rounded=0;orthogonalLoop=1;jettySize=auto;html=1;" edge="1" parent="WIyWlLk6GJQsqaUBKTNV-1" source="CC2i3FvBYXT04ihyoue2-58">
          <mxGeometry relative="1" as="geometry">
            <mxPoint x="410" y="1630" as="targetPoint" />
            <Array as="points">
              <mxPoint x="265" y="1610" />
              <mxPoint x="410" y="1610" />
            </Array>
          </mxGeometry>
        </mxCell>
        <mxCell id="CC2i3FvBYXT04ihyoue2-58" value="&quot;Introduce un número válido&quot;" style="strokeWidth=2;html=1;shape=mxgraph.flowchart.document2;whiteSpace=wrap;size=0.25;" vertex="1" parent="WIyWlLk6GJQsqaUBKTNV-1">
          <mxGeometry x="215" y="1390" width="100" height="60" as="geometry" />
        </mxCell>
        <mxCell id="CC2i3FvBYXT04ihyoue2-65" style="edgeStyle=orthogonalEdgeStyle;rounded=0;orthogonalLoop=1;jettySize=auto;html=1;" edge="1" parent="WIyWlLk6GJQsqaUBKTNV-1" source="CC2i3FvBYXT04ihyoue2-59" target="CC2i3FvBYXT04ihyoue2-64">
          <mxGeometry relative="1" as="geometry" />
        </mxCell>
        <mxCell id="CC2i3FvBYXT04ihyoue2-71" style="edgeStyle=orthogonalEdgeStyle;rounded=0;orthogonalLoop=1;jettySize=auto;html=1;" edge="1" parent="WIyWlLk6GJQsqaUBKTNV-1" source="CC2i3FvBYXT04ihyoue2-59" target="CC2i3FvBYXT04ihyoue2-70">
          <mxGeometry relative="1" as="geometry" />
        </mxCell>
        <mxCell id="CC2i3FvBYXT04ihyoue2-59" value="nota &amp;lt;= 10&lt;br&gt;y &lt;br&gt;nota &amp;gt;= 0" style="strokeWidth=2;html=1;shape=mxgraph.flowchart.decision;whiteSpace=wrap;" vertex="1" parent="WIyWlLk6GJQsqaUBKTNV-1">
          <mxGeometry x="520" y="1390" width="100" height="80" as="geometry" />
        </mxCell>
        <mxCell id="CC2i3FvBYXT04ihyoue2-62" value="SI" style="text;html=1;align=center;verticalAlign=middle;resizable=0;points=[];autosize=1;strokeColor=none;fillColor=none;" vertex="1" parent="WIyWlLk6GJQsqaUBKTNV-1">
          <mxGeometry x="505" y="1308" width="30" height="30" as="geometry" />
        </mxCell>
        <mxCell id="CC2i3FvBYXT04ihyoue2-63" value="NO" style="text;html=1;align=center;verticalAlign=middle;resizable=0;points=[];autosize=1;strokeColor=none;fillColor=none;" vertex="1" parent="WIyWlLk6GJQsqaUBKTNV-1">
          <mxGeometry x="300" y="1308" width="40" height="30" as="geometry" />
        </mxCell>
        <mxCell id="CC2i3FvBYXT04ihyoue2-67" style="edgeStyle=orthogonalEdgeStyle;rounded=0;orthogonalLoop=1;jettySize=auto;html=1;" edge="1" parent="WIyWlLk6GJQsqaUBKTNV-1" source="CC2i3FvBYXT04ihyoue2-64">
          <mxGeometry relative="1" as="geometry">
            <mxPoint x="410" y="1630" as="targetPoint" />
            <Array as="points">
              <mxPoint x="455" y="1560" />
              <mxPoint x="570" y="1560" />
              <mxPoint x="570" y="1610" />
              <mxPoint x="410" y="1610" />
              <mxPoint x="410" y="1630" />
            </Array>
          </mxGeometry>
        </mxCell>
        <mxCell id="CC2i3FvBYXT04ihyoue2-64" value="&quot;Número erróneo&quot;" style="strokeWidth=2;html=1;shape=mxgraph.flowchart.document2;whiteSpace=wrap;size=0.25;" vertex="1" parent="WIyWlLk6GJQsqaUBKTNV-1">
          <mxGeometry x="405" y="1480" width="100" height="60" as="geometry" />
        </mxCell>
        <mxCell id="CC2i3FvBYXT04ihyoue2-68" value="SI" style="text;html=1;align=center;verticalAlign=middle;resizable=0;points=[];autosize=1;strokeColor=none;fillColor=none;" vertex="1" parent="WIyWlLk6GJQsqaUBKTNV-1">
          <mxGeometry x="630" y="1405" width="30" height="30" as="geometry" />
        </mxCell>
        <mxCell id="CC2i3FvBYXT04ihyoue2-69" value="NO" style="text;html=1;align=center;verticalAlign=middle;resizable=0;points=[];autosize=1;strokeColor=none;fillColor=none;" vertex="1" parent="WIyWlLk6GJQsqaUBKTNV-1">
          <mxGeometry x="465" y="1405" width="40" height="30" as="geometry" />
        </mxCell>
        <mxCell id="CC2i3FvBYXT04ihyoue2-72" style="edgeStyle=orthogonalEdgeStyle;rounded=0;orthogonalLoop=1;jettySize=auto;html=1;endArrow=none;endFill=0;" edge="1" parent="WIyWlLk6GJQsqaUBKTNV-1" source="CC2i3FvBYXT04ihyoue2-70">
          <mxGeometry relative="1" as="geometry">
            <mxPoint x="570" y="1610" as="targetPoint" />
            <Array as="points">
              <mxPoint x="674" y="1560" />
              <mxPoint x="571" y="1560" />
              <mxPoint x="571" y="1610" />
            </Array>
          </mxGeometry>
        </mxCell>
        <mxCell id="CC2i3FvBYXT04ihyoue2-70" value="bandera &amp;lt;--1" style="rounded=1;whiteSpace=wrap;html=1;absoluteArcSize=1;arcSize=14;strokeWidth=2;" vertex="1" parent="WIyWlLk6GJQsqaUBKTNV-1">
          <mxGeometry x="624" y="1490" width="100" height="20" as="geometry" />
        </mxCell>
        <mxCell id="CC2i3FvBYXT04ihyoue2-75" style="edgeStyle=orthogonalEdgeStyle;rounded=0;orthogonalLoop=1;jettySize=auto;html=1;" edge="1" parent="WIyWlLk6GJQsqaUBKTNV-1" source="CC2i3FvBYXT04ihyoue2-74">
          <mxGeometry relative="1" as="geometry">
            <mxPoint x="410" y="1230" as="targetPoint" />
            <Array as="points">
              <mxPoint x="200" y="1660" />
              <mxPoint x="200" y="1230" />
            </Array>
          </mxGeometry>
        </mxCell>
        <mxCell id="CC2i3FvBYXT04ihyoue2-79" value="" style="edgeStyle=orthogonalEdgeStyle;rounded=0;orthogonalLoop=1;jettySize=auto;html=1;" edge="1" parent="WIyWlLk6GJQsqaUBKTNV-1" source="CC2i3FvBYXT04ihyoue2-74" target="CC2i3FvBYXT04ihyoue2-78">
          <mxGeometry relative="1" as="geometry" />
        </mxCell>
        <mxCell id="CC2i3FvBYXT04ihyoue2-74" value="bandera = 0" style="strokeWidth=2;html=1;shape=mxgraph.flowchart.decision;whiteSpace=wrap;" vertex="1" parent="WIyWlLk6GJQsqaUBKTNV-1">
          <mxGeometry x="360" y="1630" width="100" height="60" as="geometry" />
        </mxCell>
        <mxCell id="CC2i3FvBYXT04ihyoue2-77" value="SI" style="text;html=1;align=center;verticalAlign=middle;resizable=0;points=[];autosize=1;strokeColor=none;fillColor=none;" vertex="1" parent="WIyWlLk6GJQsqaUBKTNV-1">
          <mxGeometry x="330" y="1638" width="30" height="30" as="geometry" />
        </mxCell>
        <mxCell id="CC2i3FvBYXT04ihyoue2-78" value="nota" style="strokeWidth=2;html=1;shape=mxgraph.flowchart.extract_or_measurement;whiteSpace=wrap;" vertex="1" parent="WIyWlLk6GJQsqaUBKTNV-1">
          <mxGeometry x="145" y="1710" width="530" height="30" as="geometry" />
        </mxCell>
        <mxCell id="CC2i3FvBYXT04ihyoue2-89" style="edgeStyle=orthogonalEdgeStyle;rounded=0;orthogonalLoop=1;jettySize=auto;html=1;" edge="1" parent="WIyWlLk6GJQsqaUBKTNV-1" source="CC2i3FvBYXT04ihyoue2-80" target="CC2i3FvBYXT04ihyoue2-87">
          <mxGeometry relative="1" as="geometry" />
        </mxCell>
        <mxCell id="CC2i3FvBYXT04ihyoue2-80" value="10" style="rounded=1;whiteSpace=wrap;html=1;absoluteArcSize=1;arcSize=14;strokeWidth=2;" vertex="1" parent="WIyWlLk6GJQsqaUBKTNV-1">
          <mxGeometry x="140" y="1740" width="90" height="40" as="geometry" />
        </mxCell>
        <mxCell id="CC2i3FvBYXT04ihyoue2-91" style="edgeStyle=orthogonalEdgeStyle;rounded=0;orthogonalLoop=1;jettySize=auto;html=1;" edge="1" parent="WIyWlLk6GJQsqaUBKTNV-1" source="CC2i3FvBYXT04ihyoue2-81" target="CC2i3FvBYXT04ihyoue2-90">
          <mxGeometry relative="1" as="geometry" />
        </mxCell>
        <mxCell id="CC2i3FvBYXT04ihyoue2-81" value="8 a 9" style="rounded=1;whiteSpace=wrap;html=1;absoluteArcSize=1;arcSize=14;strokeWidth=2;" vertex="1" parent="WIyWlLk6GJQsqaUBKTNV-1">
          <mxGeometry x="230" y="1740" width="90" height="40" as="geometry" />
        </mxCell>
        <mxCell id="CC2i3FvBYXT04ihyoue2-96" style="edgeStyle=orthogonalEdgeStyle;rounded=0;orthogonalLoop=1;jettySize=auto;html=1;" edge="1" parent="WIyWlLk6GJQsqaUBKTNV-1" source="CC2i3FvBYXT04ihyoue2-82" target="CC2i3FvBYXT04ihyoue2-92">
          <mxGeometry relative="1" as="geometry" />
        </mxCell>
        <mxCell id="CC2i3FvBYXT04ihyoue2-82" value="7" style="rounded=1;whiteSpace=wrap;html=1;absoluteArcSize=1;arcSize=14;strokeWidth=2;" vertex="1" parent="WIyWlLk6GJQsqaUBKTNV-1">
          <mxGeometry x="320" y="1740" width="90" height="40" as="geometry" />
        </mxCell>
        <mxCell id="CC2i3FvBYXT04ihyoue2-95" style="edgeStyle=orthogonalEdgeStyle;rounded=0;orthogonalLoop=1;jettySize=auto;html=1;" edge="1" parent="WIyWlLk6GJQsqaUBKTNV-1" source="CC2i3FvBYXT04ihyoue2-83" target="CC2i3FvBYXT04ihyoue2-93">
          <mxGeometry relative="1" as="geometry" />
        </mxCell>
        <mxCell id="CC2i3FvBYXT04ihyoue2-83" value="5 a 6" style="rounded=1;whiteSpace=wrap;html=1;absoluteArcSize=1;arcSize=14;strokeWidth=2;" vertex="1" parent="WIyWlLk6GJQsqaUBKTNV-1">
          <mxGeometry x="410" y="1740" width="90" height="40" as="geometry" />
        </mxCell>
        <mxCell id="CC2i3FvBYXT04ihyoue2-98" value="" style="edgeStyle=orthogonalEdgeStyle;rounded=0;orthogonalLoop=1;jettySize=auto;html=1;" edge="1" parent="WIyWlLk6GJQsqaUBKTNV-1" source="CC2i3FvBYXT04ihyoue2-84" target="CC2i3FvBYXT04ihyoue2-97">
          <mxGeometry relative="1" as="geometry" />
        </mxCell>
        <mxCell id="CC2i3FvBYXT04ihyoue2-84" value="3 a 4" style="rounded=1;whiteSpace=wrap;html=1;absoluteArcSize=1;arcSize=14;strokeWidth=2;" vertex="1" parent="WIyWlLk6GJQsqaUBKTNV-1">
          <mxGeometry x="500" y="1740" width="90" height="40" as="geometry" />
        </mxCell>
        <mxCell id="CC2i3FvBYXT04ihyoue2-100" style="edgeStyle=orthogonalEdgeStyle;rounded=0;orthogonalLoop=1;jettySize=auto;html=1;" edge="1" parent="WIyWlLk6GJQsqaUBKTNV-1" source="CC2i3FvBYXT04ihyoue2-85" target="CC2i3FvBYXT04ihyoue2-99">
          <mxGeometry relative="1" as="geometry" />
        </mxCell>
        <mxCell id="CC2i3FvBYXT04ihyoue2-85" value="0 a 2" style="rounded=1;whiteSpace=wrap;html=1;absoluteArcSize=1;arcSize=14;strokeWidth=2;" vertex="1" parent="WIyWlLk6GJQsqaUBKTNV-1">
          <mxGeometry x="590" y="1740" width="90" height="40" as="geometry" />
        </mxCell>
        <mxCell id="CC2i3FvBYXT04ihyoue2-101" style="edgeStyle=orthogonalEdgeStyle;rounded=0;orthogonalLoop=1;jettySize=auto;html=1;" edge="1" parent="WIyWlLk6GJQsqaUBKTNV-1" source="CC2i3FvBYXT04ihyoue2-87" target="CC2i3FvBYXT04ihyoue2-50">
          <mxGeometry relative="1" as="geometry">
            <mxPoint x="185" y="1970" as="targetPoint" />
            <Array as="points">
              <mxPoint x="185" y="1970" />
              <mxPoint x="410" y="1970" />
            </Array>
          </mxGeometry>
        </mxCell>
        <mxCell id="CC2i3FvBYXT04ihyoue2-87" value="&quot;Sobresaliente&quot;" style="strokeWidth=2;html=1;shape=mxgraph.flowchart.document2;whiteSpace=wrap;size=0.25;" vertex="1" parent="WIyWlLk6GJQsqaUBKTNV-1">
          <mxGeometry x="142.5" y="1810" width="85" height="60" as="geometry" />
        </mxCell>
        <mxCell id="CC2i3FvBYXT04ihyoue2-102" style="edgeStyle=orthogonalEdgeStyle;rounded=0;orthogonalLoop=1;jettySize=auto;html=1;endArrow=none;endFill=0;" edge="1" parent="WIyWlLk6GJQsqaUBKTNV-1" source="CC2i3FvBYXT04ihyoue2-90">
          <mxGeometry relative="1" as="geometry">
            <mxPoint x="275" y="1970" as="targetPoint" />
          </mxGeometry>
        </mxCell>
        <mxCell id="CC2i3FvBYXT04ihyoue2-90" value="&quot;Notable&quot;" style="strokeWidth=2;html=1;shape=mxgraph.flowchart.document2;whiteSpace=wrap;size=0.25;" vertex="1" parent="WIyWlLk6GJQsqaUBKTNV-1">
          <mxGeometry x="230" y="1870" width="90" height="60" as="geometry" />
        </mxCell>
        <mxCell id="CC2i3FvBYXT04ihyoue2-104" style="edgeStyle=orthogonalEdgeStyle;rounded=0;orthogonalLoop=1;jettySize=auto;html=1;endArrow=none;endFill=0;" edge="1" parent="WIyWlLk6GJQsqaUBKTNV-1" source="CC2i3FvBYXT04ihyoue2-92">
          <mxGeometry relative="1" as="geometry">
            <mxPoint x="365" y="1970" as="targetPoint" />
          </mxGeometry>
        </mxCell>
        <mxCell id="CC2i3FvBYXT04ihyoue2-92" value="&quot;Bien&quot;" style="strokeWidth=2;html=1;shape=mxgraph.flowchart.document2;whiteSpace=wrap;size=0.25;" vertex="1" parent="WIyWlLk6GJQsqaUBKTNV-1">
          <mxGeometry x="320" y="1810" width="90" height="60" as="geometry" />
        </mxCell>
        <mxCell id="CC2i3FvBYXT04ihyoue2-103" style="edgeStyle=orthogonalEdgeStyle;rounded=0;orthogonalLoop=1;jettySize=auto;html=1;endArrow=none;endFill=0;" edge="1" parent="WIyWlLk6GJQsqaUBKTNV-1" source="CC2i3FvBYXT04ihyoue2-93">
          <mxGeometry relative="1" as="geometry">
            <mxPoint x="455" y="1970" as="targetPoint" />
          </mxGeometry>
        </mxCell>
        <mxCell id="CC2i3FvBYXT04ihyoue2-93" value="&quot;Suficiente&quot;" style="strokeWidth=2;html=1;shape=mxgraph.flowchart.document2;whiteSpace=wrap;size=0.25;" vertex="1" parent="WIyWlLk6GJQsqaUBKTNV-1">
          <mxGeometry x="410" y="1870" width="90" height="60" as="geometry" />
        </mxCell>
        <mxCell id="CC2i3FvBYXT04ihyoue2-105" style="edgeStyle=orthogonalEdgeStyle;rounded=0;orthogonalLoop=1;jettySize=auto;html=1;endArrow=none;endFill=0;" edge="1" parent="WIyWlLk6GJQsqaUBKTNV-1" source="CC2i3FvBYXT04ihyoue2-97">
          <mxGeometry relative="1" as="geometry">
            <mxPoint x="545" y="1970" as="targetPoint" />
          </mxGeometry>
        </mxCell>
        <mxCell id="CC2i3FvBYXT04ihyoue2-97" value="&quot;Insuficiente&quot;" style="strokeWidth=2;html=1;shape=mxgraph.flowchart.document2;whiteSpace=wrap;size=0.25;" vertex="1" parent="WIyWlLk6GJQsqaUBKTNV-1">
          <mxGeometry x="500" y="1810" width="90" height="60" as="geometry" />
        </mxCell>
        <mxCell id="CC2i3FvBYXT04ihyoue2-106" style="edgeStyle=orthogonalEdgeStyle;rounded=0;orthogonalLoop=1;jettySize=auto;html=1;entryX=0.5;entryY=0;entryDx=0;entryDy=0;entryPerimeter=0;" edge="1" parent="WIyWlLk6GJQsqaUBKTNV-1" source="CC2i3FvBYXT04ihyoue2-99" target="CC2i3FvBYXT04ihyoue2-50">
          <mxGeometry relative="1" as="geometry">
            <mxPoint x="635" y="1970" as="targetPoint" />
            <Array as="points">
              <mxPoint x="635" y="1970" />
              <mxPoint x="410" y="1970" />
            </Array>
          </mxGeometry>
        </mxCell>
        <mxCell id="CC2i3FvBYXT04ihyoue2-99" value="&quot;Muy deficiente&quot;" style="strokeWidth=2;html=1;shape=mxgraph.flowchart.document2;whiteSpace=wrap;size=0.25;" vertex="1" parent="WIyWlLk6GJQsqaUBKTNV-1">
          <mxGeometry x="590" y="1870" width="90" height="60" as="geometry" />
        </mxCell>
        <mxCell id="CC2i3FvBYXT04ihyoue2-110" value="&lt;font style=&quot;font-size: 15px;&quot;&gt;3- Realiza un script que pida cadenas de texto hasta que se pulse &quot;cancelar&quot;.&lt;br&gt;Al salir con &quot;cancelar&quot; deben mostrarse todas las cadenas concatenadas con un guion -.&lt;br&gt;NOTA: usar confirm().&lt;/font&gt;" style="text;html=1;align=left;verticalAlign=middle;resizable=0;points=[];autosize=1;strokeColor=none;fillColor=none;" vertex="1" parent="WIyWlLk6GJQsqaUBKTNV-1">
          <mxGeometry x="109" y="2085" width="610" height="70" as="geometry" />
        </mxCell>
        <mxCell id="CC2i3FvBYXT04ihyoue2-128" style="edgeStyle=orthogonalEdgeStyle;rounded=0;orthogonalLoop=1;jettySize=auto;html=1;" edge="1" parent="WIyWlLk6GJQsqaUBKTNV-1" source="CC2i3FvBYXT04ihyoue2-111" target="CC2i3FvBYXT04ihyoue2-126">
          <mxGeometry relative="1" as="geometry" />
        </mxCell>
        <mxCell id="CC2i3FvBYXT04ihyoue2-111" value="INICIO" style="strokeWidth=2;html=1;shape=mxgraph.flowchart.start_1;whiteSpace=wrap;" vertex="1" parent="WIyWlLk6GJQsqaUBKTNV-1">
          <mxGeometry x="360" y="2140" width="100" height="60" as="geometry" />
        </mxCell>
        <mxCell id="CC2i3FvBYXT04ihyoue2-112" value="FIN" style="strokeWidth=2;html=1;shape=mxgraph.flowchart.start_1;whiteSpace=wrap;" vertex="1" parent="WIyWlLk6GJQsqaUBKTNV-1">
          <mxGeometry x="360" y="2640" width="100" height="60" as="geometry" />
        </mxCell>
        <mxCell id="CC2i3FvBYXT04ihyoue2-132" style="edgeStyle=orthogonalEdgeStyle;rounded=0;orthogonalLoop=1;jettySize=auto;html=1;exitX=0.5;exitY=1;exitDx=0;exitDy=0;entryX=0.5;entryY=0;entryDx=0;entryDy=0;" edge="1" parent="WIyWlLk6GJQsqaUBKTNV-1" source="CC2i3FvBYXT04ihyoue2-113" target="CC2i3FvBYXT04ihyoue2-125">
          <mxGeometry relative="1" as="geometry" />
        </mxCell>
        <mxCell id="CC2i3FvBYXT04ihyoue2-113" value="cadena" style="shape=parallelogram;html=1;strokeWidth=2;perimeter=parallelogramPerimeter;whiteSpace=wrap;rounded=1;arcSize=12;size=0.23;" vertex="1" parent="WIyWlLk6GJQsqaUBKTNV-1">
          <mxGeometry x="360" y="2300" width="100" height="30" as="geometry" />
        </mxCell>
        <mxCell id="CC2i3FvBYXT04ihyoue2-118" value="" style="edgeStyle=orthogonalEdgeStyle;rounded=0;orthogonalLoop=1;jettySize=auto;html=1;" edge="1" parent="WIyWlLk6GJQsqaUBKTNV-1" source="CC2i3FvBYXT04ihyoue2-115" target="CC2i3FvBYXT04ihyoue2-117">
          <mxGeometry relative="1" as="geometry" />
        </mxCell>
        <mxCell id="CC2i3FvBYXT04ihyoue2-115" value="&quot;¿Desea continuar?&quot;" style="strokeWidth=2;html=1;shape=mxgraph.flowchart.document2;whiteSpace=wrap;size=0.25;" vertex="1" parent="WIyWlLk6GJQsqaUBKTNV-1">
          <mxGeometry x="350" y="2400" width="120" height="60" as="geometry" />
        </mxCell>
        <mxCell id="CC2i3FvBYXT04ihyoue2-121" value="" style="edgeStyle=orthogonalEdgeStyle;rounded=0;orthogonalLoop=1;jettySize=auto;html=1;" edge="1" parent="WIyWlLk6GJQsqaUBKTNV-1" source="CC2i3FvBYXT04ihyoue2-117" target="CC2i3FvBYXT04ihyoue2-120">
          <mxGeometry relative="1" as="geometry" />
        </mxCell>
        <mxCell id="CC2i3FvBYXT04ihyoue2-117" value="confirmar" style="shape=parallelogram;html=1;strokeWidth=2;perimeter=parallelogramPerimeter;whiteSpace=wrap;rounded=1;arcSize=12;size=0.23;" vertex="1" parent="WIyWlLk6GJQsqaUBKTNV-1">
          <mxGeometry x="360" y="2480" width="100" height="30" as="geometry" />
        </mxCell>
        <mxCell id="CC2i3FvBYXT04ihyoue2-122" value="" style="edgeStyle=orthogonalEdgeStyle;rounded=0;orthogonalLoop=1;jettySize=auto;html=1;" edge="1" parent="WIyWlLk6GJQsqaUBKTNV-1" source="CC2i3FvBYXT04ihyoue2-120" target="CC2i3FvBYXT04ihyoue2-112">
          <mxGeometry relative="1" as="geometry" />
        </mxCell>
        <mxCell id="CC2i3FvBYXT04ihyoue2-123" style="edgeStyle=orthogonalEdgeStyle;rounded=0;orthogonalLoop=1;jettySize=auto;html=1;" edge="1" parent="WIyWlLk6GJQsqaUBKTNV-1" source="CC2i3FvBYXT04ihyoue2-120">
          <mxGeometry relative="1" as="geometry">
            <mxPoint x="410" y="2280" as="targetPoint" />
            <Array as="points">
              <mxPoint x="300" y="2575" />
              <mxPoint x="300" y="2280" />
            </Array>
          </mxGeometry>
        </mxCell>
        <mxCell id="CC2i3FvBYXT04ihyoue2-120" value="confirmar = TRUE" style="strokeWidth=2;html=1;shape=mxgraph.flowchart.decision;whiteSpace=wrap;" vertex="1" parent="WIyWlLk6GJQsqaUBKTNV-1">
          <mxGeometry x="345" y="2540" width="130" height="70" as="geometry" />
        </mxCell>
        <mxCell id="CC2i3FvBYXT04ihyoue2-124" value="SI" style="text;html=1;align=center;verticalAlign=middle;resizable=0;points=[];autosize=1;strokeColor=none;fillColor=none;" vertex="1" parent="WIyWlLk6GJQsqaUBKTNV-1">
          <mxGeometry x="315" y="2550" width="30" height="30" as="geometry" />
        </mxCell>
        <mxCell id="CC2i3FvBYXT04ihyoue2-125" value="salida &amp;lt;-- salida + &quot; - &quot; + cadena" style="rounded=1;whiteSpace=wrap;html=1;absoluteArcSize=1;arcSize=14;strokeWidth=2;" vertex="1" parent="WIyWlLk6GJQsqaUBKTNV-1">
          <mxGeometry x="324" y="2350" width="175" height="30" as="geometry" />
        </mxCell>
        <mxCell id="CC2i3FvBYXT04ihyoue2-131" style="edgeStyle=orthogonalEdgeStyle;rounded=0;orthogonalLoop=1;jettySize=auto;html=1;" edge="1" parent="WIyWlLk6GJQsqaUBKTNV-1" source="CC2i3FvBYXT04ihyoue2-126" target="CC2i3FvBYXT04ihyoue2-113">
          <mxGeometry relative="1" as="geometry" />
        </mxCell>
        <mxCell id="CC2i3FvBYXT04ihyoue2-126" value="salida &amp;lt;-- &quot;&quot;" style="rounded=1;whiteSpace=wrap;html=1;absoluteArcSize=1;arcSize=14;strokeWidth=2;" vertex="1" parent="WIyWlLk6GJQsqaUBKTNV-1">
          <mxGeometry x="322.5" y="2230" width="175" height="30" as="geometry" />
        </mxCell>
        <mxCell id="CC2i3FvBYXT04ihyoue2-133" style="edgeStyle=orthogonalEdgeStyle;rounded=0;orthogonalLoop=1;jettySize=auto;html=1;exitX=0.5;exitY=1;exitDx=0;exitDy=0;entryX=0.5;entryY=0;entryDx=0;entryDy=0;entryPerimeter=0;" edge="1" parent="WIyWlLk6GJQsqaUBKTNV-1" source="CC2i3FvBYXT04ihyoue2-125" target="CC2i3FvBYXT04ihyoue2-115">
          <mxGeometry relative="1" as="geometry" />
        </mxCell>
        <mxCell id="CC2i3FvBYXT04ihyoue2-134" value="&lt;p style=&quot;line-height:1.38;text-align: justify;margin-top:0pt;margin-bottom:0pt;&quot; dir=&quot;ltr&quot;&gt;&lt;/p&gt;&lt;div&gt;&lt;/div&gt;&lt;span style=&quot;font-size: 11pt; font-family: &amp;quot;Work Sans&amp;quot;, sans-serif; color: rgb(67, 67, 67); background-color: transparent; font-variant-numeric: normal; font-variant-east-asian: normal; font-variant-alternates: normal; font-variant-position: normal; vertical-align: baseline;&quot;&gt;&lt;div style=&quot;text-align: left;&quot;&gt;&lt;span style=&quot;background-color: transparent; font-size: 11pt;&quot;&gt;4- Realiza un script que pida números hasta que se pulse “cancelar”.&amp;nbsp;&lt;/span&gt;&lt;span style=&quot;background-color: transparent; font-size: 11pt;&quot;&gt;Si no es un número deberá&amp;nbsp;&lt;/span&gt;&lt;span style=&quot;background-color: transparent; font-size: 11pt;&quot;&gt;indicarse con un «alert»&amp;nbsp;&lt;/span&gt;&lt;/div&gt;&lt;span style=&quot;background-color: transparent; font-size: 11pt;&quot;&gt;&lt;div style=&quot;text-align: left;&quot;&gt;&lt;span style=&quot;background-color: transparent; font-size: 11pt;&quot;&gt;y seguir pidiendo números.&amp;nbsp;&lt;/span&gt;&lt;span style=&quot;background-color: transparent; font-size: 11pt;&quot;&gt;Al salir con “cancelar” deberá indicarse la suma total de los números introducidos.&lt;/span&gt;&lt;/div&gt;&lt;/span&gt;&lt;/span&gt;&lt;span id=&quot;docs-internal-guid-6f85ff94-7fff-ebfc-bc46-a792afd849a8&quot;&gt;&lt;div style=&quot;text-align: left;&quot;&gt;&lt;/div&gt;&lt;/span&gt;" style="text;html=1;align=center;verticalAlign=middle;resizable=0;points=[];autosize=1;strokeColor=none;fillColor=none;" vertex="1" parent="WIyWlLk6GJQsqaUBKTNV-1">
          <mxGeometry y="2710" width="820" height="50" as="geometry" />
        </mxCell>
        <mxCell id="CC2i3FvBYXT04ihyoue2-138" value="" style="edgeStyle=orthogonalEdgeStyle;rounded=0;orthogonalLoop=1;jettySize=auto;html=1;" edge="1" parent="WIyWlLk6GJQsqaUBKTNV-1" source="CC2i3FvBYXT04ihyoue2-135" target="CC2i3FvBYXT04ihyoue2-137">
          <mxGeometry relative="1" as="geometry" />
        </mxCell>
        <mxCell id="CC2i3FvBYXT04ihyoue2-135" value="INICIO" style="strokeWidth=2;html=1;shape=mxgraph.flowchart.start_1;whiteSpace=wrap;" vertex="1" parent="WIyWlLk6GJQsqaUBKTNV-1">
          <mxGeometry x="345" y="2800" width="100" height="60" as="geometry" />
        </mxCell>
        <mxCell id="CC2i3FvBYXT04ihyoue2-140" value="" style="edgeStyle=orthogonalEdgeStyle;rounded=0;orthogonalLoop=1;jettySize=auto;html=1;" edge="1" parent="WIyWlLk6GJQsqaUBKTNV-1" source="CC2i3FvBYXT04ihyoue2-137" target="CC2i3FvBYXT04ihyoue2-139">
          <mxGeometry relative="1" as="geometry" />
        </mxCell>
        <mxCell id="CC2i3FvBYXT04ihyoue2-137" value="suma &amp;lt;-- 0" style="rounded=1;whiteSpace=wrap;html=1;absoluteArcSize=1;arcSize=14;strokeWidth=2;" vertex="1" parent="WIyWlLk6GJQsqaUBKTNV-1">
          <mxGeometry x="345" y="2880" width="100" height="30" as="geometry" />
        </mxCell>
        <mxCell id="CC2i3FvBYXT04ihyoue2-142" value="" style="edgeStyle=orthogonalEdgeStyle;rounded=0;orthogonalLoop=1;jettySize=auto;html=1;" edge="1" parent="WIyWlLk6GJQsqaUBKTNV-1" source="CC2i3FvBYXT04ihyoue2-139" target="CC2i3FvBYXT04ihyoue2-141">
          <mxGeometry relative="1" as="geometry" />
        </mxCell>
        <mxCell id="CC2i3FvBYXT04ihyoue2-139" value="num" style="shape=parallelogram;html=1;strokeWidth=2;perimeter=parallelogramPerimeter;whiteSpace=wrap;rounded=1;arcSize=12;size=0.23;" vertex="1" parent="WIyWlLk6GJQsqaUBKTNV-1">
          <mxGeometry x="345" y="2960" width="100" height="30" as="geometry" />
        </mxCell>
        <mxCell id="CC2i3FvBYXT04ihyoue2-144" style="edgeStyle=orthogonalEdgeStyle;rounded=0;orthogonalLoop=1;jettySize=auto;html=1;" edge="1" parent="WIyWlLk6GJQsqaUBKTNV-1" source="CC2i3FvBYXT04ihyoue2-141" target="CC2i3FvBYXT04ihyoue2-143">
          <mxGeometry relative="1" as="geometry" />
        </mxCell>
        <mxCell id="CC2i3FvBYXT04ihyoue2-145" style="edgeStyle=orthogonalEdgeStyle;rounded=0;orthogonalLoop=1;jettySize=auto;html=1;endArrow=none;endFill=0;" edge="1" parent="WIyWlLk6GJQsqaUBKTNV-1" source="CC2i3FvBYXT04ihyoue2-141">
          <mxGeometry relative="1" as="geometry">
            <mxPoint x="395" y="3230" as="targetPoint" />
            <Array as="points">
              <mxPoint x="510" y="3070" />
              <mxPoint x="510" y="3210" />
              <mxPoint x="395" y="3210" />
            </Array>
          </mxGeometry>
        </mxCell>
        <mxCell id="CC2i3FvBYXT04ihyoue2-141" value="num es un numero" style="strokeWidth=2;html=1;shape=mxgraph.flowchart.decision;whiteSpace=wrap;" vertex="1" parent="WIyWlLk6GJQsqaUBKTNV-1">
          <mxGeometry x="345" y="3020" width="100" height="100" as="geometry" />
        </mxCell>
        <mxCell id="CC2i3FvBYXT04ihyoue2-146" style="edgeStyle=orthogonalEdgeStyle;rounded=0;orthogonalLoop=1;jettySize=auto;html=1;" edge="1" parent="WIyWlLk6GJQsqaUBKTNV-1" source="CC2i3FvBYXT04ihyoue2-143" target="CC2i3FvBYXT04ihyoue2-151">
          <mxGeometry relative="1" as="geometry">
            <mxPoint x="395" y="3236" as="targetPoint" />
            <Array as="points">
              <mxPoint x="284" y="3210" />
              <mxPoint x="395" y="3210" />
            </Array>
          </mxGeometry>
        </mxCell>
        <mxCell id="CC2i3FvBYXT04ihyoue2-143" value="&quot;No es un número&quot;" style="strokeWidth=2;html=1;shape=mxgraph.flowchart.document2;whiteSpace=wrap;size=0.25;" vertex="1" parent="WIyWlLk6GJQsqaUBKTNV-1">
          <mxGeometry x="234" y="3126" width="100" height="60" as="geometry" />
        </mxCell>
        <mxCell id="CC2i3FvBYXT04ihyoue2-148" value="FIN" style="strokeWidth=2;html=1;shape=mxgraph.flowchart.start_1;whiteSpace=wrap;" vertex="1" parent="WIyWlLk6GJQsqaUBKTNV-1">
          <mxGeometry x="345" y="3507" width="100" height="60" as="geometry" />
        </mxCell>
        <mxCell id="CC2i3FvBYXT04ihyoue2-149" value="SI" style="text;html=1;align=center;verticalAlign=middle;resizable=0;points=[];autosize=1;strokeColor=none;fillColor=none;" vertex="1" parent="WIyWlLk6GJQsqaUBKTNV-1">
          <mxGeometry x="465" y="3048" width="30" height="30" as="geometry" />
        </mxCell>
        <mxCell id="CC2i3FvBYXT04ihyoue2-150" value="NO" style="text;html=1;align=center;verticalAlign=middle;resizable=0;points=[];autosize=1;strokeColor=none;fillColor=none;" vertex="1" parent="WIyWlLk6GJQsqaUBKTNV-1">
          <mxGeometry x="290" y="3048" width="40" height="30" as="geometry" />
        </mxCell>
        <mxCell id="CC2i3FvBYXT04ihyoue2-153" value="" style="edgeStyle=orthogonalEdgeStyle;rounded=0;orthogonalLoop=1;jettySize=auto;html=1;" edge="1" parent="WIyWlLk6GJQsqaUBKTNV-1" source="CC2i3FvBYXT04ihyoue2-151" target="CC2i3FvBYXT04ihyoue2-152">
          <mxGeometry relative="1" as="geometry" />
        </mxCell>
        <mxCell id="CC2i3FvBYXT04ihyoue2-151" value="confirmar" style="shape=parallelogram;html=1;strokeWidth=2;perimeter=parallelogramPerimeter;whiteSpace=wrap;rounded=1;arcSize=12;size=0.23;" vertex="1" parent="WIyWlLk6GJQsqaUBKTNV-1">
          <mxGeometry x="345" y="3237" width="100" height="30" as="geometry" />
        </mxCell>
        <mxCell id="CC2i3FvBYXT04ihyoue2-154" style="edgeStyle=orthogonalEdgeStyle;rounded=0;orthogonalLoop=1;jettySize=auto;html=1;" edge="1" parent="WIyWlLk6GJQsqaUBKTNV-1" source="CC2i3FvBYXT04ihyoue2-152">
          <mxGeometry relative="1" as="geometry">
            <mxPoint x="390" y="2928.9473684210525" as="targetPoint" />
            <Array as="points">
              <mxPoint x="220" y="3335" />
              <mxPoint x="220" y="2929" />
            </Array>
          </mxGeometry>
        </mxCell>
        <mxCell id="CC2i3FvBYXT04ihyoue2-158" value="" style="edgeStyle=orthogonalEdgeStyle;rounded=0;orthogonalLoop=1;jettySize=auto;html=1;" edge="1" parent="WIyWlLk6GJQsqaUBKTNV-1" source="CC2i3FvBYXT04ihyoue2-152" target="CC2i3FvBYXT04ihyoue2-157">
          <mxGeometry relative="1" as="geometry" />
        </mxCell>
        <mxCell id="CC2i3FvBYXT04ihyoue2-152" value="confirmar = TRUE" style="strokeWidth=2;html=1;shape=mxgraph.flowchart.decision;whiteSpace=wrap;" vertex="1" parent="WIyWlLk6GJQsqaUBKTNV-1">
          <mxGeometry x="332" y="3300" width="125" height="70" as="geometry" />
        </mxCell>
        <mxCell id="CC2i3FvBYXT04ihyoue2-155" value="SI" style="text;html=1;align=center;verticalAlign=middle;resizable=0;points=[];autosize=1;strokeColor=none;fillColor=none;" vertex="1" parent="WIyWlLk6GJQsqaUBKTNV-1">
          <mxGeometry x="281" y="3314" width="30" height="30" as="geometry" />
        </mxCell>
        <mxCell id="CC2i3FvBYXT04ihyoue2-159" value="" style="edgeStyle=orthogonalEdgeStyle;rounded=0;orthogonalLoop=1;jettySize=auto;html=1;" edge="1" parent="WIyWlLk6GJQsqaUBKTNV-1" source="CC2i3FvBYXT04ihyoue2-157" target="CC2i3FvBYXT04ihyoue2-148">
          <mxGeometry relative="1" as="geometry" />
        </mxCell>
        <mxCell id="CC2i3FvBYXT04ihyoue2-157" value="suma" style="strokeWidth=2;html=1;shape=mxgraph.flowchart.document2;whiteSpace=wrap;size=0.25;" vertex="1" parent="WIyWlLk6GJQsqaUBKTNV-1">
          <mxGeometry x="344.5" y="3400" width="100" height="60" as="geometry" />
        </mxCell>
        <mxCell id="CC2i3FvBYXT04ihyoue2-161" value="suma &amp;lt;-- suma + num" style="rounded=1;whiteSpace=wrap;html=1;absoluteArcSize=1;arcSize=14;strokeWidth=2;" vertex="1" parent="WIyWlLk6GJQsqaUBKTNV-1">
          <mxGeometry x="435" y="3126" width="150" height="42" as="geometry" />
        </mxCell>
      </root>
    </mxGraphModel>
  </diagram>
</mxfile>
